<svg xmlns="http://www.w3.org/2000/svg" xmlns:xlink="http://www.w3.org/1999/xlink" width="1075" height="326" viewBox="0 0 1075 326">
  <defs>
    <linearGradient id="linear-gradient" x1="0.5" y1="1" x2="0.5" y2="-0.021" gradientUnits="objectBoundingBox">
      <stop offset="0" stop-color="#ff5e57"/>
      <stop offset="0.62" stop-color="#ffbd4a"/>
    </linearGradient>
    <linearGradient id="linear-gradient-2" y1="0.5" x2="1" y2="0.5" gradientUnits="objectBoundingBox">
      <stop offset="0" stop-color="#3784de"/>
      <stop offset="1" stop-color="#7bd2fd"/>
    </linearGradient>
  </defs>
  <g id="Group_1" data-name="Group 1" transform="translate(-677 -330)">
    <g id="OBJECTS" transform="translate(677.097 351)">
      <circle id="Ellipse_1" data-name="Ellipse 1" cx="141.971" cy="141.971" r="141.971" transform="translate(3.505 0)" fill="#fff"/>
      <path id="Path_1" data-name="Path 1" d="M236.01,207.084c58.714,0,110.547,4.315,141.552,10.924q.41-5.4.419-10.924a142.007,142.007,0,0,0-283.941,0q0,5.462.419,10.924C125.464,211.4,177.3,207.084,236.01,207.084Z" transform="translate(-90.535 -65.113)" fill="url(#linear-gradient)"/>
      <path id="Path_2" data-name="Path 2" d="M376.939,238.327c.273-2.212.5-4.424.665-6.663-31-6.591-82.837-10.924-141.552-10.924S125.5,225.055,94.5,231.664l154.1.91L103.767,242.587l28.674,5.735-34.473,5.462a141.093,141.093,0,0,0,6.891,21.265l60.562-2.358-25.088,5.025,125.476,2.148-155.525,6.764a142.443,142.443,0,0,0,18.206,26.754l64.167,2.33-55.009,7.337q4.934,4.734,10.3,9l37.532,2.3-28.9,4.051A142.007,142.007,0,0,0,312.035,340.7l-51.25-4.861h58.4a143.566,143.566,0,0,0,13.336-10.924l-71.741-6.991,83.921-5.79c.8-.956,1.584-1.912,2.358-2.886L246.447,300.71l109.91-4.552q1.648-2.64,3.2-5.343l-35.666-5.881L354,282.786l-22.23-2.148,25.816-5.043L241.432,261.94h130.5q2.021-6.663,3.4-13.6l-44.987-10.059Z" transform="translate(-90.576 -78.788)" fill="url(#linear-gradient-2)"/>
      <path id="Path_3" data-name="Path 3" d="M245.472,220.76c-15.921,0-31.323.319-45.952.91l71.768,4.825-36.212,1.429L310,231.156l-85.322,7.883,65.25,4.7-59.515,3.587,125.831,4.306-68.828-13.263,32.98-1.438-11.115-2.512L357.33,231.9,318.3,226.495l26.918-1.065C317.049,222.49,282.649,220.76,245.472,220.76Z" transform="translate(-99.996 -78.79)" fill="#4392e3"/>
      <path id="Path_4" data-name="Path 4" d="M115.81,200.354l110.055,14.337L117.958,204.3l87.835,13.627-19.007,2.867,45.178,3.587-113.287,6.809,58.432-6.454H165.276l21.155-6.809L130.5,211.469l12.189-.719L72.78,201.073l38.36,2.148L95.01,199.28Z" transform="translate(-6.537 -17.875)" fill="#4392e3"/>
      <path id="Path_5" data-name="Path 5" d="M374.56,192.949l3.932-3.932a2.967,2.967,0,1,0-4.2-4.2l-.328.319L372.7,168.417l3.933-3.905a2.971,2.971,0,1,0-4.206-4.2l-.346.337-1.466-19.808c10.851-10.232,19.453-18.379,21.392-20.327,7.692-7.692,5.271-19.344,4.087-20.527s-12.844-3.641-20.536,4.087c-1.939,1.939-10.086,10.541-20.327,21.392l-19.8-1.5.346-.346a2.967,2.967,0,1,0-4.2-4.2l-3.96,3.951L310.9,122.119l.328-.328a2.967,2.967,0,1,0-4.2-4.2l-3.941,3.933-25.844-1.957-5.8,5.8,47.208,13.655,13.536,10.924c-12.116,14.474-31.169,36.412-31.169,36.412l-25.616-3.022-3.905,3.905L289.965,198.6c-2.012,2.248-1.3,4.142-1.3,4.142-3.55,3.55-2.012,6.745-2.012,6.745s3.2,1.538,6.745-2.012c0,0,1.893.71,4.142-1.3l11.351,18.452,3.905-3.9-3.013-25.616s21.847-19.053,36.366-31.169l10.924,13.536,13.645,47.108,5.789-5.8Z" transform="translate(-106.449 -67.837)" fill="#0c264c"/>
      <path id="Path_6" data-name="Path 6" d="M215.993,264.047c-8.857,6.2-17.878,12.116-27.063,17.642a308.9,308.9,0,0,1-28.074,15.093c-4.752,2.212-9.549,4.242-14.337,6a101.207,101.207,0,0,1-14.192,4.142,47.662,47.662,0,0,1-6.618.91,21.729,21.729,0,0,1-5.462-.273,7.708,7.708,0,0,1-1.693-.546,1.584,1.584,0,0,1-.646-.546c-.055-.127.073-.191.155-.228a.237.237,0,0,0,.209-.228c.046-.282,0-1.256.1-2.667.055-.555.146-1.183.264-1.821A141.552,141.552,0,0,1,99.52,261.7c-1.693,4.115-3.268,8.338-4.688,12.744a101.463,101.463,0,0,0-4.324,18.871,57.1,57.1,0,0,0-.273,11.124,38.908,38.908,0,0,0,1.047,6.372,30.3,30.3,0,0,0,2.549,6.818,26.462,26.462,0,0,0,11.2,11.37,29.019,29.019,0,0,0,6.9,2.522,34.89,34.89,0,0,0,6.372.783,46.987,46.987,0,0,0,10.851-1.038,71.626,71.626,0,0,0,9.294-2.631,122.029,122.029,0,0,0,16.331-7.282c5.125-2.731,10.013-5.662,14.765-8.73a321.864,321.864,0,0,0,27.072-19.763c8.621-6.964,16.922-14.219,24.988-21.7a627.793,627.793,0,0,0,45.57-47.226A621.412,621.412,0,0,1,215.993,264.047Z" transform="translate(-90.18 -79.074)" fill="#0c264c"/>
      <path id="Path_7" data-name="Path 7" d="M305.863,220.7c-11.087-3.841-34.473-11.452-42.966-10.232-11.3,1.611-16.131,2.685-25.816,1.074s-14.565-2.731-21.51-3.769-5.917-4.834-15.593-4.834-21.51.537-21.51.537l-19.9,2.685s-2.731-3.76-6.991-4.306-6.991-4.834-12.908-5.371-9.1-.537-11.834.537a34.914,34.914,0,0,1-10.76,1.611c-3.232,0-4.834-1.611-7.528-1.611s-3.222-1.074-6.991-1.074c-1.238,0-3.414.118-5.78.273A143.018,143.018,0,0,0,94,218.535q0,5.462.419,10.924c31-6.591,82.837-10.924,141.552-10.924C260.885,218.535,284.517,219.308,305.863,220.7Z" transform="translate(-90.531 -76.564)" fill="#0c264c"/>
    </g>
    <text id="OMEGA_Travels_and_Tourism" data-name="OMEGA 
Travels and Tourism" transform="translate(1059 509)" fill="#0c264c" font-size="179" font-family="Outfit" font-weight="700"><tspan x="0" y="0">OMEGA</tspan><tspan y="0" font-size="99"> </tspan><tspan font-size="79" font-weight="400"><tspan x="0" y="126">Travels and Tourism</tspan></tspan></text>
  </g>
</svg>
